<?xml version="1.0" encoding="utf-8"?>
<!-- Generator: Adobe Illustrator 25.4.1, SVG Export Plug-In . SVG Version: 6.00 Build 0)  -->
<svg version="1.1" id="Camada_1" xmlns="http://www.w3.org/2000/svg" xmlns:xlink="http://www.w3.org/1999/xlink" x="0px" y="0px"
	 viewBox="0 0 50 50" style="enable-background:new 0 0 50 50;" xml:space="preserve">
<style type="text/css">
	.st0{fill-rule:evenodd;clip-rule:evenodd;fill:#967BB6;}
</style>
<path class="st0" d="M25.1,0C11.2,0,0,11.5,0,25.7C0,37,7.2,46.6,17.2,50c1.3,0.2,1.7-0.5,1.7-1.2v-4.4c-7,1.5-8.5-3.4-8.5-3.4
	c-1.2-2.9-2.8-3.8-2.8-3.8c-2.3-1.5,0.2-1.5,0.2-1.5c2.5,0.2,3.8,2.6,3.8,2.6c2.2,3.9,5.9,2.7,7.4,2.1c0.2-1.7,0.8-2.7,1.7-3.4
	C15,36.1,9.2,33.9,9.2,24.1c0-2.7,1-5.1,2.5-6.8c-0.3-0.7-1.2-3.3,0.2-6.8c0,0,2.2-0.7,6.9,2.6c2-0.5,4.2-0.9,6.4-0.9
	s4.3,0.3,6.4,0.9c4.8-3.3,6.9-2.6,6.9-2.6c1.3,3.6,0.5,6.2,0.2,6.8c1.7,1.7,2.5,4.1,2.5,6.8c0,9.9-5.9,12-11.4,12.7
	c0.8,0.9,1.7,2.4,1.7,4.8v7c0,0.7,0.5,1.5,1.7,1.2C43,46.4,50,36.8,50,25.5C50.2,11.5,39,0,25.1,0z"/>
</svg>
